# xmcd
#
# Track frame offsets:
#	150
#	16168
#	28263
#	42344
#	59358
#	72891
#	89766
#	108624
#	122033
#	133418
#
# Disc length: 2132 seconds
#
# Revision: 0
# Processed by: cddbd v1.5.2PL0 Copyright (c) Steve Scherf et al.
# Submitted via: EasyCDDAExtractor 16.0.1.1
#
DISCID=9408520a
DTITLE=Brazos Valley Boys - 60th Anniversary
DYEAR=2006
DGENRE=Bluegrass
TTITLE0=Jersey Bounce
TTITLE1=They Can't That Away From Me
TTITLE2=Undecided
TTITLE3=It Had To Be You
TTITLE4=Misty
TTITLE5=Red Wagon+Anytime
TTITLE6=Satin Doll
TTITLE7=Summit Ridge Drive
TTITLE8=Hank Thompson Tribute
TTITLE9=Orange Blossom Special+Steel Guitar Rag
EXTD=
EXTT0=
EXTT1=
EXTT2=
EXTT3=
EXTT4=
EXTT5=
EXTT6=
EXTT7=
EXTT8=
EXTT9=
PLAYORDER=
